<mxfile host="www.draw.io" modified="2019-11-20T10:24:13.893Z" agent="Mozilla/5.0 (Windows NT 10.0; Win64; x64) AppleWebKit/537.36 (KHTML, like Gecko) Chrome/78.0.3904.108 Safari/537.36" etag="QBePzne8bjULqGOVfjen" version="12.2.7" type="github" pages="1">
  <diagram id="aK7PBVv4swszZj2G6Ywu" name="Page-1">
    <mxGraphModel dx="1005" dy="562" grid="1" gridSize="10" guides="1" tooltips="1" connect="1" arrows="1" fold="1" page="1" pageScale="1" pageWidth="827" pageHeight="1169" math="0" shadow="0">
      <root>
        <mxCell id="0"/>
        <mxCell id="1" parent="0"/>
        <mxCell id="S0FZuNY8cHFbXYStwwbH-1" value="Pembeli" style="rounded=0;whiteSpace=wrap;html=1;" parent="1" vertex="1">
          <mxGeometry x="40" y="370" width="120" height="60" as="geometry"/>
        </mxCell>
        <mxCell id="S0FZuNY8cHFbXYStwwbH-2" value="Barang" style="rounded=0;whiteSpace=wrap;html=1;" parent="1" vertex="1">
          <mxGeometry x="395" y="370" width="120" height="60" as="geometry"/>
        </mxCell>
        <mxCell id="S0FZuNY8cHFbXYStwwbH-4" value="Detail_pemasokan" style="rounded=0;whiteSpace=wrap;html=1;" parent="1" vertex="1">
          <mxGeometry x="680" y="540" width="130" height="60" as="geometry"/>
        </mxCell>
        <mxCell id="S0FZuNY8cHFbXYStwwbH-5" value="Kategori" style="rounded=0;whiteSpace=wrap;html=1;" parent="1" vertex="1">
          <mxGeometry x="565" y="160" width="120" height="60" as="geometry"/>
        </mxCell>
        <mxCell id="S0FZuNY8cHFbXYStwwbH-6" value="Satuan" style="rounded=0;whiteSpace=wrap;html=1;" parent="1" vertex="1">
          <mxGeometry x="230" y="160" width="120" height="60" as="geometry"/>
        </mxCell>
        <mxCell id="S0FZuNY8cHFbXYStwwbH-7" value="Pegawai" style="rounded=0;whiteSpace=wrap;html=1;" parent="1" vertex="1">
          <mxGeometry x="225" y="495" width="120" height="60" as="geometry"/>
        </mxCell>
        <mxCell id="S0FZuNY8cHFbXYStwwbH-9" value="Pemasok" style="rounded=0;whiteSpace=wrap;html=1;" parent="1" vertex="1">
          <mxGeometry x="685" y="370" width="120" height="60" as="geometry"/>
        </mxCell>
        <mxCell id="S0FZuNY8cHFbXYStwwbH-10" value="utang" style="rounded=0;whiteSpace=wrap;html=1;" parent="1" vertex="1">
          <mxGeometry x="40" y="599" width="120" height="60" as="geometry"/>
        </mxCell>
        <mxCell id="S0FZuNY8cHFbXYStwwbH-11" value="pembayaran" style="rounded=0;whiteSpace=wrap;html=1;" parent="1" vertex="1">
          <mxGeometry x="40" y="784" width="120" height="60" as="geometry"/>
        </mxCell>
        <mxCell id="S-hdtyqL7qgYF6HgLpP4-1" value="memiliki" style="rhombus;whiteSpace=wrap;html=1;" vertex="1" parent="1">
          <mxGeometry x="345" y="240" width="80" height="80" as="geometry"/>
        </mxCell>
        <mxCell id="S-hdtyqL7qgYF6HgLpP4-2" value="Laporan_pemasukan" style="rounded=0;whiteSpace=wrap;html=1;" vertex="1" parent="1">
          <mxGeometry x="220" y="680" width="130" height="60" as="geometry"/>
        </mxCell>
        <mxCell id="S-hdtyqL7qgYF6HgLpP4-8" value="memiliki" style="rhombus;whiteSpace=wrap;html=1;" vertex="1" parent="1">
          <mxGeometry x="500" y="240" width="80" height="80" as="geometry"/>
        </mxCell>
        <mxCell id="S-hdtyqL7qgYF6HgLpP4-9" value="disuplai" style="rhombus;whiteSpace=wrap;html=1;" vertex="1" parent="1">
          <mxGeometry x="570" y="362.5" width="80" height="80" as="geometry"/>
        </mxCell>
        <mxCell id="S-hdtyqL7qgYF6HgLpP4-10" value="memiliki" style="rhombus;whiteSpace=wrap;html=1;" vertex="1" parent="1">
          <mxGeometry x="705" y="445" width="80" height="80" as="geometry"/>
        </mxCell>
        <mxCell id="S-hdtyqL7qgYF6HgLpP4-11" value="Transaksi" style="rhombus;whiteSpace=wrap;html=1;" vertex="1" parent="1">
          <mxGeometry x="245" y="362.5" width="80" height="80" as="geometry"/>
        </mxCell>
        <mxCell id="S-hdtyqL7qgYF6HgLpP4-12" value="memiliki" style="rhombus;whiteSpace=wrap;html=1;" vertex="1" parent="1">
          <mxGeometry x="245" y="580" width="80" height="80" as="geometry"/>
        </mxCell>
        <mxCell id="S-hdtyqL7qgYF6HgLpP4-13" value="memiliki" style="rhombus;whiteSpace=wrap;html=1;" vertex="1" parent="1">
          <mxGeometry x="60" y="688" width="80" height="80" as="geometry"/>
        </mxCell>
        <mxCell id="S-hdtyqL7qgYF6HgLpP4-14" value="bisa" style="rhombus;whiteSpace=wrap;html=1;" vertex="1" parent="1">
          <mxGeometry x="60" y="485" width="80" height="80" as="geometry"/>
        </mxCell>
        <mxCell id="S-hdtyqL7qgYF6HgLpP4-15" value="" style="edgeStyle=entityRelationEdgeStyle;fontSize=12;html=1;endArrow=ERoneToMany;startArrow=ERmandOne;" edge="1" parent="1" source="S-hdtyqL7qgYF6HgLpP4-8" target="S0FZuNY8cHFbXYStwwbH-2">
          <mxGeometry width="100" height="100" relative="1" as="geometry">
            <mxPoint x="440" y="615" as="sourcePoint"/>
            <mxPoint x="540" y="515" as="targetPoint"/>
          </mxGeometry>
        </mxCell>
        <mxCell id="S-hdtyqL7qgYF6HgLpP4-16" value="" style="edgeStyle=entityRelationEdgeStyle;fontSize=12;html=1;endArrow=ERoneToMany;startArrow=ERmandOne;" edge="1" parent="1" source="S-hdtyqL7qgYF6HgLpP4-1" target="S0FZuNY8cHFbXYStwwbH-2">
          <mxGeometry width="100" height="100" relative="1" as="geometry">
            <mxPoint x="590" y="289.9999999999999" as="sourcePoint"/>
            <mxPoint x="525" y="410" as="targetPoint"/>
          </mxGeometry>
        </mxCell>
      </root>
    </mxGraphModel>
  </diagram>
</mxfile>
